<?xml version="1.0" encoding="UTF-8"?>
<svg id="Layer_1" data-name="Layer 1" xmlns="http://www.w3.org/2000/svg" viewBox="0 0 267.64 45.62">
  <defs>
    <style>
      .cls-1 {
        fill: #333f48;
      }

      .cls-2 {
        fill: #bf5700;
      }
    </style>
  </defs>
  <g>
    <polygon class="cls-2" points="0 1.06 0 12.04 2.42 12.04 5.27 4.16 14.57 4.04 14.57 41.61 7.13 42.42 7.44 44.59 17.86 44.4 27.9 44.59 28.21 42.42 21.08 41.61 21.08 4.04 30.38 4.16 33.23 12.04 35.65 12.04 35.65 1.06 17.8 1.25 0 1.06"/>
    <polygon class="cls-2" points="68.2 41.49 51.15 41.67 51.15 23.07 59.83 23.32 62.31 29.83 64.48 29.83 63.86 21.46 64.48 13.71 62.31 13.71 59.83 20.22 51.15 20.47 51.15 3.98 67.58 4.16 71.05 12.22 73.16 12.22 72.54 1.06 47.93 1.25 39.37 1.06 39.06 3.23 44.64 4.04 44.64 41.61 39.06 42.42 39.37 44.59 47.93 44.4 72.54 44.59 74.71 33.12 72.35 33.12 68.2 41.49"/>
    <path class="cls-2" d="M140.18.5l-3.72,1.05-15.38,40.17-2.99.4-2.97-.46-13.76-20.27,12.71-17.48,4.84-.68-.31-2.17-7.25.19-7.25-.19-.31,2.17,5.39.8-9.84,14.46-8.76-14.53,5.27-.81-.31-2.17-8.8.25-8.87-.25-.31,2.17,4.84.68,12.83,19.41-13.39,18.41-4.84.68.31,2.23,6.94-.19,7.25.19.31-2.23-5.08-.74,10.57-15.46,9.64,15.4-5.27.81.31,2.23,8.87-.19,7.24.15,5.09-.15,7.44.19.31-2.17-5.39-.81,4.03-11.59h15.31l4.22,11.59-5.27.81.31,2.17,8.18-.19,8.56.19.31-2.17-4.84-.68L140.17.49h0ZM130.57,27.1l6.43-18.59,6.78,18.59h-13.21,0Z"/>
    <path class="cls-2" d="M182.22,20.22l-7.13-3.1c-3.41-1.49-5.83-3.6-5.83-7.01,0-4.15,2.91-6.82,7.81-6.82,3.72,0,5.71,1.36,7.32,3.04l1.8,5.64h3.1V3.6c-3.1-2.29-7.44-3.6-11.34-3.6-8.62,1.8-14.82,5.77-14.82,12.52,0,5.52,3.66,8.37,8.12,10.29l7.5,3.29c3.72,1.61,6.45,4.03,6.45,8.25,0,4.53-3.1,7.87-8.43,7.87-3.47,0-6.88-1.61-8.74-3.91l-2.17-5.27h-4.34l1.36,8.37c3.29,2.6,7.13,4.21,12.83,4.21,11.65-2.42,15.62-8.06,15.62-13.89.06-6.32-4.22-9.42-9.11-11.53v.02Z"/>
  </g>
  <g>
    <path class="cls-1" d="M215,30.02l-4.03,11.59,5.39.81-.31,2.17-7.44-.19-6.63.19-.31-2.17,4.84-.68L221.89,1.57l3.72-1.05,16.18,41.23,4.84.68-.31,2.17-8.56-.19-8.18.19-.31-2.17,5.27-.81-4.22-11.59h-15.32ZM223.25,10.74l-.43-3.35-6.82,19.71h13.21l-5.95-16.37h0Z"/>
    <path class="cls-1" d="M258.84,44.4l-8.56.19-.31-2.23,5.58-.81V4.04l-5.58-.81.31-2.17,8.56.19,8.49-.19.31,2.17-5.58.81v37.51l5.58.81-.31,2.23-8.49-.19Z"/>
  </g>
</svg>